<svg xmlns="http://www.w3.org/2000/svg" width="390" height="844" viewBox="0 0 390 844">
  <rect width="390" height="844" fill="#F4F4F4"/>
  <text x="16" y="36" font-family="Georgia,serif" font-size="20" font-style="italic" fill="#111">Sunday Coat</text>
  <text x="16" y="56" font-family="system-ui,sans-serif" font-size="11" fill="#6B6B6B">AFTER · pin tap → shop sheet</text>
  <rect x="16" y="72" width="358" height="360" rx="24" fill="#4a423c"/>
  <circle cx="150" cy="180" r="16" fill="#111" stroke="#fff" stroke-width="4"/>
  <text x="150" y="185" text-anchor="middle" font-family="system-ui" font-size="11" font-weight="700" fill="#fff">1</text>
  <circle cx="180" cy="300" r="14" fill="#fff" opacity="0.7"/>
  <text x="180" y="305" text-anchor="middle" font-family="system-ui" font-size="11" font-weight="700" fill="#111">2</text>
  <rect x="0" y="400" width="390" height="354" rx="24" fill="#fff"/>
  <rect x="177" y="412" width="36" height="4" rx="2" fill="#E0E0E0"/>
  <rect x="16" y="432" width="358" height="56" rx="12" fill="#F4F4F4"/>
  <circle cx="44" cy="460" r="14" fill="#111"/>
  <text x="44" y="464" text-anchor="middle" font-family="system-ui" font-size="11" font-weight="700" fill="#fff">1</text>
  <text x="68" y="465" font-family="system-ui" font-size="13" font-weight="600" fill="#111">White shirt</text>
  <rect x="288" y="444" width="72" height="36" rx="12" fill="#111"/>
  <text x="324" y="467" text-anchor="middle" font-family="system-ui" font-size="12" font-weight="600" fill="#fff">Shop</text>
  <rect x="16" y="502" width="358" height="48" rx="12" fill="#111"/>
  <text x="195" y="532" text-anchor="middle" font-family="system-ui" font-size="13" font-weight="600" fill="#fff">Shop look · cheapest per piece</text>
  <rect x="16" y="562" width="358" height="44" rx="12" fill="#ECECEC"/>
  <text x="195" y="590" text-anchor="middle" font-family="system-ui" font-size="13" font-weight="600" fill="#111">Compare 4 shops</text>
  <text x="16" y="630" font-family="system-ui" font-size="11" fill="#6B6B6B">Dismiss keeps pin · Guest Shop OK · no account gate</text>
  <text x="16" y="652" font-family="system-ui" font-size="11" fill="#6B6B6B">Sole piece primary = Shop in bar · card = Compare only</text>
  <rect x="0" y="754" width="390" height="90" fill="#F4F4F4"/>
  <text x="65" y="802" text-anchor="middle" font-family="system-ui" font-size="11" font-weight="600" fill="#111">Looks</text>
  <text x="195" y="802" text-anchor="middle" font-family="system-ui" font-size="11" fill="#6B6B6B">Create</text>
  <text x="325" y="802" text-anchor="middle" font-family="system-ui" font-size="11" fill="#6B6B6B">You</text>
</svg>
